<svg width="55" height="55" viewBox="0 0 55 55" fill="none" xmlns="http://www.w3.org/2000/svg">
<g clip-path="url(#clip0_505_977)">
<path d="M37.2506 19.7605L45.9475 10.1466C47.6619 8.43219 46.4476 5.5 44.0225 5.5H2.72778C0.302623 5.5 -0.911674 8.43219 0.802779 10.1466L16.5001 27.5V40.8994C16.5001 41.9813 17.0097 42.9997 17.8751 43.6494L24.7493 48.8056C26.5419 50.1497 28.9147 49.4046 29.8385 47.6395C26.7095 44.6342 24.7501 40.4207 24.7501 35.75C24.7501 28.0337 30.0825 21.5557 37.2506 19.7605ZM41.2501 22C33.6558 22 27.5001 28.1557 27.5001 35.75C27.5001 43.3443 33.6558 49.5 41.2501 49.5C48.8444 49.5 55.0001 43.3443 55.0001 35.75C55.0001 28.1557 48.8444 22 41.2501 22ZM42.6251 42.6147V44C42.6251 44.3798 42.3175 44.6875 41.9376 44.6875H40.5626C40.1828 44.6875 39.8751 44.3798 39.8751 44V42.6001C38.9049 42.5502 37.9613 42.2116 37.1793 41.6247C36.8441 41.3729 36.8269 40.871 37.1303 40.5814L38.14 39.618C38.3781 39.3912 38.7322 39.3809 39.0106 39.5553C39.3432 39.7633 39.7204 39.875 40.1123 39.875H42.528C43.0866 39.875 43.5421 39.3662 43.5421 38.7415C43.5421 38.2302 43.2318 37.7798 42.7884 37.6475L38.9212 36.4873C37.3236 36.0078 36.2073 34.4747 36.2073 32.7585C36.2073 30.6513 37.8444 28.9395 39.8743 28.8853V27.5C39.8743 27.1202 40.1819 26.8125 40.5618 26.8125H41.9368C42.3166 26.8125 42.6243 27.1202 42.6243 27.5V28.8999C43.5945 28.9498 44.5381 29.2875 45.3201 29.8753C45.6553 30.1271 45.6725 30.629 45.3691 30.9186L44.3593 31.882C44.1213 32.1088 43.7672 32.1191 43.4888 31.9447C43.1562 31.7359 42.779 31.625 42.3871 31.625H39.9714C39.4128 31.625 38.9573 32.1338 38.9573 32.7585C38.9573 33.2698 39.2675 33.7202 39.711 33.8525L43.5782 35.0127C45.1757 35.4922 46.2921 37.0253 46.2921 38.7415C46.2921 40.8495 44.6558 42.5605 42.6251 42.6147Z" fill="#A7A7A7"/>
</g>
<defs>
<clipPath id="clip0_505_977">
<rect width="55" height="55" fill="white"/>
</clipPath>
</defs>
</svg>
