<svg width="55" height="55" viewBox="0 0 55 55" fill="none" xmlns="http://www.w3.org/2000/svg">
<path d="M3.4375 49.8438C3.4375 52.6904 5.74707 55 8.59375 55H46.4062C49.2529 55 51.5625 52.6904 51.5625 49.8438V20.625H3.4375V49.8438ZM37.8125 28.7891C37.8125 28.0801 38.3926 27.5 39.1016 27.5H43.3984C44.1074 27.5 44.6875 28.0801 44.6875 28.7891V33.0859C44.6875 33.7949 44.1074 34.375 43.3984 34.375H39.1016C38.3926 34.375 37.8125 33.7949 37.8125 33.0859V28.7891ZM37.8125 42.5391C37.8125 41.8301 38.3926 41.25 39.1016 41.25H43.3984C44.1074 41.25 44.6875 41.8301 44.6875 42.5391V46.8359C44.6875 47.5449 44.1074 48.125 43.3984 48.125H39.1016C38.3926 48.125 37.8125 47.5449 37.8125 46.8359V42.5391ZM24.0625 28.7891C24.0625 28.0801 24.6426 27.5 25.3516 27.5H29.6484C30.3574 27.5 30.9375 28.0801 30.9375 28.7891V33.0859C30.9375 33.7949 30.3574 34.375 29.6484 34.375H25.3516C24.6426 34.375 24.0625 33.7949 24.0625 33.0859V28.7891ZM24.0625 42.5391C24.0625 41.8301 24.6426 41.25 25.3516 41.25H29.6484C30.3574 41.25 30.9375 41.8301 30.9375 42.5391V46.8359C30.9375 47.5449 30.3574 48.125 29.6484 48.125H25.3516C24.6426 48.125 24.0625 47.5449 24.0625 46.8359V42.5391ZM10.3125 28.7891C10.3125 28.0801 10.8926 27.5 11.6016 27.5H15.8984C16.6074 27.5 17.1875 28.0801 17.1875 28.7891V33.0859C17.1875 33.7949 16.6074 34.375 15.8984 34.375H11.6016C10.8926 34.375 10.3125 33.7949 10.3125 33.0859V28.7891ZM10.3125 42.5391C10.3125 41.8301 10.8926 41.25 11.6016 41.25H15.8984C16.6074 41.25 17.1875 41.8301 17.1875 42.5391V46.8359C17.1875 47.5449 16.6074 48.125 15.8984 48.125H11.6016C10.8926 48.125 10.3125 47.5449 10.3125 46.8359V42.5391ZM46.4062 6.875H41.25V1.71875C41.25 0.773438 40.4766 0 39.5312 0H36.0938C35.1484 0 34.375 0.773438 34.375 1.71875V6.875H20.625V1.71875C20.625 0.773438 19.8516 0 18.9062 0H15.4688C14.5234 0 13.75 0.773438 13.75 1.71875V6.875H8.59375C5.74707 6.875 3.4375 9.18457 3.4375 12.0312V17.1875H51.5625V12.0312C51.5625 9.18457 49.2529 6.875 46.4062 6.875Z" fill="#A7A7A7"/>
</svg>
