<svg width="55" height="55" viewBox="0 0 55 55" fill="none" xmlns="http://www.w3.org/2000/svg">
<path fill-rule="evenodd" clip-rule="evenodd" d="M27.5 49.5C33.3348 49.5 38.9305 47.1822 43.0564 43.0564C47.1822 38.9305 49.5 33.3348 49.5 27.5C49.5 21.6652 47.1822 16.0695 43.0564 11.9437C38.9305 7.81785 33.3348 5.5 27.5 5.5C21.6652 5.5 16.0695 7.81785 11.9437 11.9437C7.81785 16.0695 5.5 21.6652 5.5 27.5C5.5 33.3348 7.81785 38.9305 11.9437 43.0564C16.0695 47.1822 21.6652 49.5 27.5 49.5ZM30.25 16.5C30.25 15.7707 29.9603 15.0712 29.4445 14.5555C28.9288 14.0397 28.2293 13.75 27.5 13.75C26.7707 13.75 26.0712 14.0397 25.5555 14.5555C25.0397 15.0712 24.75 15.7707 24.75 16.5V27.5C24.7502 28.2293 25.04 28.9286 25.5557 29.4443L33.3328 37.224C33.5883 37.4795 33.8916 37.6822 34.2254 37.8205C34.5592 37.9587 34.917 38.0299 35.2784 38.0299C35.6397 38.0299 35.9975 37.9587 36.3313 37.8205C36.6652 37.6822 36.9685 37.4795 37.224 37.224C37.4795 36.9685 37.6822 36.6652 37.8205 36.3313C37.9587 35.9975 38.0299 35.6397 38.0299 35.2784C38.0299 34.917 37.9587 34.5592 37.8205 34.2254C37.6822 33.8916 37.4795 33.5883 37.224 33.3328L30.25 26.3615V16.5Z" fill="#A7A7A7"/>
</svg>
