<svg width="55" height="55" viewBox="0 0 55 55" fill="none" xmlns="http://www.w3.org/2000/svg">
<path fill-rule="evenodd" clip-rule="evenodd" d="M10.1941 6.30565C9.67549 5.80471 8.98084 5.52753 8.2598 5.5338C7.53875 5.54006 6.84902 5.82928 6.33915 6.33915C5.82928 6.84902 5.54006 7.53875 5.5338 8.2598C5.52753 8.98084 5.80471 9.67549 6.30565 10.1941L44.8056 48.6942C45.3243 49.1951 46.019 49.4723 46.74 49.466C47.461 49.4597 48.1508 49.1705 48.6606 48.6606C49.1705 48.1508 49.4597 47.461 49.466 46.74C49.4723 46.019 49.1951 45.3243 48.6942 44.8056L44.6434 40.7549C48.9266 37.3397 52.0939 32.7247 53.7404 27.4999C50.2369 16.3431 39.8144 8.2499 27.4999 8.2499C23.1891 8.24405 18.9378 9.256 15.0919 11.2034L10.1941 6.30565ZM21.9119 18.0206L26.0754 22.1869C27.0079 21.9393 27.9891 21.9409 28.9207 22.1917C29.8524 22.4424 30.7019 22.9335 31.3841 23.6157C32.0663 24.2979 32.5574 25.1474 32.8081 26.0791C33.0589 27.0107 33.0605 27.9919 32.8129 28.9244L36.9764 33.0879C38.2166 30.987 38.7232 28.5333 38.4164 26.113C38.1097 23.6927 37.007 21.443 35.2819 19.7179C33.5568 17.9928 31.3071 16.8901 28.8868 16.5834C26.4665 16.2766 24.0128 16.7804 21.9119 18.0206Z" fill="black"/>
<path d="M34.2485 45.9169L26.8125 38.4781C24.1387 38.3106 21.6178 37.173 19.7232 35.2788C17.8285 33.3847 16.6903 30.8642 16.522 28.1904L6.42127 18.0896C4.0981 20.8561 2.34398 24.0541 1.25952 27.5001C4.76302 38.6568 15.1883 46.7501 27.5 46.7501C29.8293 46.7501 32.0898 46.4614 34.2485 45.9169Z" fill="black"/>
</svg>
