<svg width="165" height="167" viewBox="0 0 165 167" fill="none" xmlns="http://www.w3.org/2000/svg">
<path fill-rule="evenodd" clip-rule="evenodd" d="M4 83.5C14.5105 50.0297 45.778 25.75 82.7215 25.75C119.665 25.75 150.932 50.0297 161.443 83.5C150.932 116.97 119.665 141.25 82.7215 141.25C45.778 141.25 14.5105 116.97 4 83.5ZM115.721 83.5C115.721 92.2521 112.245 100.646 106.056 106.835C99.8673 113.023 91.4736 116.5 82.7215 116.5C73.9694 116.5 65.5757 113.023 59.387 106.835C53.1983 100.646 49.7215 92.2521 49.7215 83.5C49.7215 74.7479 53.1983 66.3542 59.387 60.1655C65.5757 53.9768 73.9694 50.5 82.7215 50.5C91.4736 50.5 99.8673 53.9768 106.056 60.1655C112.245 66.3542 115.721 74.7479 115.721 83.5Z" fill="black"/>
<path d="M82.5 100.05C86.8761 100.05 91.0729 98.3064 94.1673 95.2026C97.2616 92.0989 99 87.8893 99 83.5C99 79.1107 97.2616 74.9011 94.1673 71.7974C91.0729 68.6937 86.8761 66.95 82.5 66.95C78.1239 66.95 73.9271 68.6937 70.8327 71.7974C67.7384 74.9011 66 79.1107 66 83.5C66 87.8893 67.7384 92.0989 70.8327 95.2026C73.9271 98.3064 78.1239 100.05 82.5 100.05Z" fill="black"/>
</svg>
