<svg width="5" height="5" viewBox="0 0 55 55" fill="none" xmlns="http://www.w3.org/2000/svg">
<path d="M52.25 8.25H2.75C1.23148 8.25 0 9.48148 0 11V44C0 45.5185 1.23148 46.75 2.75 46.75H52.25C53.7685 46.75 55 45.5185 55 44V11C55 9.48148 53.7685 8.25 52.25 8.25ZM15.125 33.6772V35.0625C15.125 35.4423 14.8173 35.75 14.4375 35.75H13.0625C12.6827 35.75 12.375 35.4423 12.375 35.0625V33.6626C11.4048 33.6127 10.4612 33.2741 9.67914 32.6872C9.34398 32.4354 9.3268 31.9335 9.63016 31.6439L10.6399 30.6805C10.878 30.4537 11.232 30.4434 11.5105 30.6178C11.843 30.8258 12.2203 30.9375 12.6122 30.9375H15.0279C15.5865 30.9375 16.042 30.4287 16.042 29.804C16.042 29.2927 15.7317 28.8423 15.2883 28.71L11.4211 27.5498C9.82351 27.0703 8.70719 25.5372 8.70719 23.821C8.70719 21.7138 10.3443 20.002 12.3741 19.9478V18.5625C12.3741 18.1827 12.6818 17.875 13.0616 17.875H14.4366C14.8165 17.875 15.1241 18.1827 15.1241 18.5625V19.9624C16.0944 20.0123 17.038 20.35 17.82 20.9378C18.1552 21.1896 18.1723 21.6915 17.869 21.9811L16.8592 22.9445C16.6212 23.1713 16.2671 23.1816 15.9887 23.0072C15.6561 22.7984 15.2788 22.6875 14.887 22.6875H12.4712C11.9127 22.6875 11.4572 23.1962 11.4572 23.821C11.4572 24.3323 11.7674 24.7827 12.2109 24.915L16.078 26.0752C17.6756 26.5547 18.792 28.0878 18.792 29.804C18.792 31.912 17.1548 33.623 15.125 33.6772ZM35.75 32.3125C35.75 32.6923 35.4423 33 35.0625 33H25.4375C25.0577 33 24.75 32.6923 24.75 32.3125V30.9375C24.75 30.5577 25.0577 30.25 25.4375 30.25H35.0625C35.4423 30.25 35.75 30.5577 35.75 30.9375V32.3125ZM49.5 32.3125C49.5 32.6923 49.1923 33 48.8125 33H41.9375C41.5577 33 41.25 32.6923 41.25 32.3125V30.9375C41.25 30.5577 41.5577 30.25 41.9375 30.25H48.8125C49.1923 30.25 49.5 30.5577 49.5 30.9375V32.3125ZM49.5 24.0625C49.5 24.4423 49.1923 24.75 48.8125 24.75H25.4375C25.0577 24.75 24.75 24.4423 24.75 24.0625V22.6875C24.75 22.3077 25.0577 22 25.4375 22H48.8125C49.1923 22 49.5 22.3077 49.5 22.6875V24.0625Z" fill="#A7A7A7"/>
</svg>
