<svg width="55" height="55" viewBox="0 0 55 55" fill="none" xmlns="http://www.w3.org/2000/svg">
<path fill-rule="evenodd" clip-rule="evenodd" d="M13.8874 11.1375C17.4977 7.52725 22.3942 5.49902 27.4999 5.49902C32.6056 5.49902 37.5022 7.52725 41.1124 11.1375C44.7227 14.7478 46.7509 19.6443 46.7509 24.75C46.7509 29.8557 44.7227 34.7522 41.1124 38.3625L27.4999 51.975L13.8874 38.3625C12.0997 36.575 10.6816 34.4528 9.71404 32.1171C8.74652 29.7815 8.24854 27.2781 8.24854 24.75C8.24854 22.2219 8.74652 19.7185 9.71404 17.3829C10.6816 15.0473 12.0997 12.9251 13.8874 11.1375ZM27.4999 30.25C28.9586 30.25 30.3576 29.6705 31.389 28.6391C32.4205 27.6076 32.9999 26.2087 32.9999 24.75C32.9999 23.2913 32.4205 21.8924 31.389 20.8609C30.3576 19.8295 28.9586 19.25 27.4999 19.25C26.0412 19.25 24.6423 19.8295 23.6108 20.8609C22.5794 21.8924 21.9999 23.2913 21.9999 24.75C21.9999 26.2087 22.5794 27.6076 23.6108 28.6391C24.6423 29.6705 26.0412 30.25 27.4999 30.25Z" fill="#A7A7A7"/>
</svg>
