<svg width="202" height="34" viewBox="0 0 202 34" fill="none" xmlns="http://www.w3.org/2000/svg">
<rect width="202" height="34" fill="#5DB075"/>
<path d="M27.964 28.5V6.1H36.348C38.4813 6.1 40.38 6.548 42.044 7.444C43.708 8.32933 45.0147 9.60933 45.964 11.284C46.9133 12.948 47.388 14.9533 47.388 17.3C47.388 19.6467 46.9133 21.6573 45.964 23.332C45.0147 24.996 43.708 26.276 42.044 27.172C40.38 28.0573 38.4813 28.5 36.348 28.5H27.964ZM32.06 24.852H36.348C37.7987 24.852 39.0093 24.548 39.98 23.94C40.9507 23.332 41.6813 22.4627 42.172 21.332C42.6627 20.2013 42.908 18.8573 42.908 17.3C42.908 15.7427 42.6627 14.3987 42.172 13.268C41.6813 12.1373 40.9507 11.268 39.98 10.66C39.0093 10.052 37.7987 9.748 36.348 9.748H32.06V24.852ZM53.562 28.82C52.7087 28.82 51.93 28.6333 51.226 28.26C50.522 27.876 49.962 27.3267 49.546 26.612C49.13 25.8973 48.922 25.0333 48.922 24.02C48.922 23.1133 49.13 22.34 49.546 21.7C49.9727 21.0493 50.5273 20.5107 51.21 20.084C51.9033 19.6467 52.65 19.3053 53.45 19.06C54.2607 18.804 55.0553 18.6173 55.834 18.5C56.6233 18.3827 57.3167 18.3133 57.914 18.292C57.8713 17.3747 57.6367 16.708 57.21 16.292C56.7833 15.876 56.058 15.668 55.034 15.668C54.3193 15.668 53.6207 15.7693 52.938 15.972C52.266 16.164 51.5033 16.468 50.65 16.884L50.298 13.652C51.258 13.1827 52.218 12.8307 53.178 12.596C54.1487 12.3613 55.13 12.244 56.122 12.244C57.3167 12.244 58.346 12.4573 59.21 12.884C60.074 13.3107 60.7407 13.9987 61.21 14.948C61.6793 15.8867 61.914 17.1293 61.914 18.676V22.996C61.914 23.796 61.9513 24.3773 62.026 24.74C62.1007 25.092 62.2393 25.316 62.442 25.412C62.6447 25.508 62.938 25.556 63.322 25.556H63.834L63.482 28.82H62.042C61.4447 28.82 60.9113 28.74 60.442 28.58C59.9833 28.4307 59.5887 28.2173 59.258 27.94C58.9273 27.6627 58.6607 27.3373 58.458 26.964C57.9353 27.5507 57.226 28.0093 56.33 28.34C55.4447 28.66 54.522 28.82 53.562 28.82ZM55.226 25.78C55.578 25.78 56.0153 25.6893 56.538 25.508C57.0607 25.316 57.53 25.0227 57.946 24.628V20.98C57.1993 21.012 56.4527 21.1347 55.706 21.348C54.9593 21.5613 54.3353 21.876 53.834 22.292C53.3327 22.708 53.082 23.2307 53.082 23.86C53.082 24.5107 53.2527 24.996 53.594 25.316C53.9353 25.6253 54.4793 25.78 55.226 25.78ZM70.5875 28.82C69.5315 28.82 68.5768 28.7187 67.7235 28.516C66.8808 28.3133 66.0328 28.02 65.1795 27.636L65.5315 24.244C66.3528 24.724 67.1582 25.1133 67.9475 25.412C68.7475 25.7 69.5848 25.844 70.4595 25.844C71.2488 25.844 71.8515 25.716 72.2675 25.46C72.6835 25.204 72.8915 24.7987 72.8915 24.244C72.8915 23.828 72.7795 23.4867 72.5555 23.22C72.3422 22.9533 72.0168 22.7133 71.5795 22.5C71.1422 22.2867 70.5982 22.0573 69.9475 21.812C68.9662 21.4493 68.1288 21.0547 67.4355 20.628C66.7528 20.2013 66.2302 19.6893 65.8675 19.092C65.5155 18.484 65.3395 17.7373 65.3395 16.852C65.3395 15.9347 65.5795 15.124 66.0595 14.42C66.5395 13.716 67.2222 13.1667 68.1075 12.772C68.9928 12.3773 70.0435 12.18 71.2595 12.18C72.2728 12.18 73.1795 12.292 73.9795 12.516C74.7902 12.74 75.5368 13.044 76.2195 13.428L75.8675 16.82C75.1528 16.3187 74.4328 15.908 73.7075 15.588C72.9822 15.2573 72.1875 15.092 71.3235 15.092C70.6408 15.092 70.1128 15.2307 69.7395 15.508C69.3662 15.7853 69.1795 16.18 69.1795 16.692C69.1795 17.3107 69.4408 17.7747 69.9635 18.084C70.4862 18.3933 71.3235 18.772 72.4755 19.22C73.2222 19.508 73.8675 19.8067 74.4115 20.116C74.9662 20.4253 75.4248 20.7667 75.7875 21.14C76.1502 21.5133 76.4168 21.94 76.5875 22.42C76.7688 22.8893 76.8595 23.4333 76.8595 24.052C76.8595 25.0653 76.6142 25.9293 76.1235 26.644C75.6435 27.348 74.9342 27.8867 73.9955 28.26C73.0675 28.6333 71.9315 28.82 70.5875 28.82ZM79.5428 28.5V4.5H83.5108V14.836L82.6148 14.132C83.2868 13.6627 84.0174 13.2307 84.8068 12.836C85.5961 12.4413 86.5401 12.244 87.6388 12.244C89.0468 12.244 90.1934 12.5587 91.0788 13.188C91.9641 13.8067 92.6148 14.6707 93.0308 15.78C93.4468 16.8787 93.6548 18.1533 93.6548 19.604V28.5H89.6868V19.892C89.6868 18.3987 89.4468 17.2947 88.9668 16.58C88.4868 15.8653 87.7028 15.508 86.6148 15.508C85.6868 15.508 84.9241 15.7267 84.3268 16.164C83.7401 16.5907 83.2228 17.172 82.7748 17.908L83.5108 15.764V28.5H79.5428ZM105.52 28.82C104.304 28.82 103.253 28.6227 102.368 28.228C101.482 27.8333 100.656 27.2947 99.8878 26.612L101.072 25.78L100.88 28.5H97.1678V4.5H101.136V15.156L100.176 14.548C100.88 13.8227 101.664 13.2573 102.528 12.852C103.402 12.4467 104.4 12.244 105.52 12.244C107.088 12.244 108.405 12.6227 109.472 13.38C110.538 14.1373 111.344 15.1453 111.888 16.404C112.442 17.6627 112.72 19.0387 112.72 20.532C112.72 22.0253 112.442 23.4013 111.888 24.66C111.344 25.9187 110.538 26.9267 109.472 27.684C108.405 28.4413 107.088 28.82 105.52 28.82ZM104.944 25.556C105.733 25.556 106.405 25.3427 106.96 24.916C107.514 24.4893 107.936 23.9027 108.224 23.156C108.512 22.3987 108.656 21.524 108.656 20.532C108.656 19.54 108.512 18.6707 108.224 17.924C107.936 17.1667 107.514 16.5747 106.96 16.148C106.405 15.7213 105.733 15.508 104.944 15.508C104.016 15.508 103.258 15.7213 102.672 16.148C102.085 16.5747 101.648 17.1667 101.36 17.924C101.082 18.6707 100.944 19.54 100.944 20.532C100.944 21.524 101.082 22.3987 101.36 23.156C101.648 23.9027 102.085 24.4893 102.672 24.916C103.258 25.3427 104.016 25.556 104.944 25.556ZM122.745 28.82C121.006 28.82 119.524 28.4413 118.297 27.684C117.07 26.9267 116.132 25.9187 115.481 24.66C114.841 23.4013 114.521 22.0253 114.521 20.532C114.521 19.028 114.841 17.6413 115.481 16.372C116.132 15.1027 117.07 14.0893 118.297 13.332C119.524 12.564 121.006 12.18 122.745 12.18C124.484 12.18 125.966 12.564 127.193 13.332C128.42 14.0893 129.353 15.1027 129.993 16.372C130.644 17.6413 130.969 19.028 130.969 20.532C130.969 22.0253 130.644 23.4013 129.993 24.66C129.353 25.9187 128.42 26.9267 127.193 27.684C125.966 28.4413 124.484 28.82 122.745 28.82ZM122.745 25.556C124.078 25.556 125.102 25.092 125.817 24.164C126.542 23.2253 126.905 22.0147 126.905 20.532C126.905 19.028 126.542 17.8067 125.817 16.868C125.102 15.9187 124.078 15.444 122.745 15.444C121.422 15.444 120.398 15.9187 119.673 16.868C118.948 17.8067 118.585 19.028 118.585 20.532C118.585 22.0147 118.948 23.2253 119.673 24.164C120.398 25.092 121.422 25.556 122.745 25.556ZM137.187 28.82C136.334 28.82 135.555 28.6333 134.851 28.26C134.147 27.876 133.587 27.3267 133.171 26.612C132.755 25.8973 132.547 25.0333 132.547 24.02C132.547 23.1133 132.755 22.34 133.171 21.7C133.598 21.0493 134.152 20.5107 134.835 20.084C135.528 19.6467 136.275 19.3053 137.075 19.06C137.886 18.804 138.68 18.6173 139.459 18.5C140.248 18.3827 140.942 18.3133 141.539 18.292C141.496 17.3747 141.262 16.708 140.835 16.292C140.408 15.876 139.683 15.668 138.659 15.668C137.944 15.668 137.246 15.7693 136.563 15.972C135.891 16.164 135.128 16.468 134.275 16.884L133.923 13.652C134.883 13.1827 135.843 12.8307 136.803 12.596C137.774 12.3613 138.755 12.244 139.747 12.244C140.942 12.244 141.971 12.4573 142.835 12.884C143.699 13.3107 144.366 13.9987 144.835 14.948C145.304 15.8867 145.539 17.1293 145.539 18.676V22.996C145.539 23.796 145.576 24.3773 145.651 24.74C145.726 25.092 145.864 25.316 146.067 25.412C146.27 25.508 146.563 25.556 146.947 25.556H147.459L147.107 28.82H145.667C145.07 28.82 144.536 28.74 144.067 28.58C143.608 28.4307 143.214 28.2173 142.883 27.94C142.552 27.6627 142.286 27.3373 142.083 26.964C141.56 27.5507 140.851 28.0093 139.955 28.34C139.07 28.66 138.147 28.82 137.187 28.82ZM138.851 25.78C139.203 25.78 139.64 25.6893 140.163 25.508C140.686 25.316 141.155 25.0227 141.571 24.628V20.98C140.824 21.012 140.078 21.1347 139.331 21.348C138.584 21.5613 137.96 21.876 137.459 22.292C136.958 22.708 136.707 23.2307 136.707 23.86C136.707 24.5107 136.878 24.996 137.219 25.316C137.56 25.6253 138.104 25.78 138.851 25.78ZM149.669 28.5V12.5H153.381L153.477 14.196C153.882 13.748 154.453 13.3 155.189 12.852C155.925 12.404 156.73 12.18 157.605 12.18C157.861 12.18 158.095 12.2013 158.309 12.244L158.021 16.148C157.786 16.084 157.551 16.0413 157.317 16.02C157.093 15.9987 156.869 15.988 156.645 15.988C155.973 15.988 155.359 16.1427 154.805 16.452C154.25 16.7613 153.861 17.14 153.637 17.588V28.5H149.669ZM166.414 28.82C164.792 28.82 163.427 28.4413 162.318 27.684C161.219 26.9267 160.387 25.9187 159.822 24.66C159.267 23.4013 158.99 22.0253 158.99 20.532C158.99 19.0387 159.267 17.6627 159.822 16.404C160.387 15.1453 161.219 14.1373 162.318 13.38C163.427 12.6227 164.792 12.244 166.414 12.244C167.587 12.244 168.579 12.4413 169.39 12.836C170.2 13.22 170.915 13.716 171.534 14.324L170.574 15.156V4.5H174.542V28.5H170.798L170.606 25.78L171.758 26.612C171.011 27.2947 170.238 27.8333 169.438 28.228C168.638 28.6227 167.63 28.82 166.414 28.82ZM166.99 25.556C167.864 25.556 168.579 25.3427 169.134 24.916C169.688 24.4893 170.099 23.9027 170.366 23.156C170.632 22.3987 170.766 21.524 170.766 20.532C170.766 19.54 170.632 18.6707 170.366 17.924C170.099 17.1667 169.688 16.5747 169.134 16.148C168.579 15.7213 167.864 15.508 166.99 15.508C166.158 15.508 165.448 15.7213 164.862 16.148C164.275 16.5747 163.827 17.1667 163.518 17.924C163.208 18.6707 163.054 19.54 163.054 20.532C163.054 21.524 163.208 22.3987 163.518 23.156C163.827 23.9027 164.275 24.4893 164.862 24.916C165.448 25.3427 166.158 25.556 166.99 25.556Z" fill="black"/>
</svg>
