<svg width="56" height="39" viewBox="0 0 56 39" fill="none" xmlns="http://www.w3.org/2000/svg">
<path d="M17.3276 19.6187C22.6472 19.6187 26.9526 15.3132 26.9526 9.99365C26.9526 4.67412 22.6472 0.368652 17.3276 0.368652C12.0081 0.368652 7.70264 4.67412 7.70264 9.99365C7.70264 15.3132 12.0081 19.6187 17.3276 19.6187ZM23.9276 22.3687H23.2144C21.4269 23.228 19.4417 23.7437 17.3276 23.7437C15.2136 23.7437 13.237 23.228 11.4409 22.3687H10.7276C5.26201 22.3687 0.827637 26.803 0.827637 32.2687V34.7437C0.827637 37.021 2.67529 38.8687 4.95264 38.8687H29.7026C31.98 38.8687 33.8276 37.021 33.8276 34.7437V32.2687C33.8276 26.803 29.3933 22.3687 23.9276 22.3687ZM42.0776 19.6187C46.6323 19.6187 50.3276 15.9233 50.3276 11.3687C50.3276 6.81396 46.6323 3.11865 42.0776 3.11865C37.5229 3.11865 33.8276 6.81396 33.8276 11.3687C33.8276 15.9233 37.5229 19.6187 42.0776 19.6187ZM46.2026 22.3687H45.8761C44.6815 22.7812 43.4183 23.0562 42.0776 23.0562C40.737 23.0562 39.4737 22.7812 38.2792 22.3687H37.9526C36.1995 22.3687 34.5839 22.8757 33.1659 23.6921C35.2628 25.9522 36.5776 28.9515 36.5776 32.2687V35.5687C36.5776 35.7577 36.5347 35.9382 36.5261 36.1187H51.7026C53.98 36.1187 55.8276 34.271 55.8276 31.9937C55.8276 26.6741 51.5222 22.3687 46.2026 22.3687Z" fill="#797979"/>
</svg>
