<svg width="55" height="55" viewBox="0 0 55 55" fill="none" xmlns="http://www.w3.org/2000/svg">
<path d="M53.3887 29.3263L35.3418 47.3731C33.7305 48.9845 30.9375 47.8565 30.9375 45.547V35.2345H16.3281C14.8994 35.2345 13.75 34.085 13.75 32.6563V22.3438C13.75 20.9151 14.8994 19.7657 16.3281 19.7657H30.9375V9.45321C30.9375 7.15438 33.7197 6.01571 35.3418 7.62704L53.3887 25.6739C54.3877 26.6837 54.3877 28.3165 53.3887 29.3263ZM20.625 46.836V42.5392C20.625 41.8302 20.0449 41.2501 19.3359 41.2501H10.3125C8.41113 41.2501 6.875 39.714 6.875 37.8126V17.1876C6.875 15.2862 8.41113 13.7501 10.3125 13.7501H19.3359C20.0449 13.7501 20.625 13.17 20.625 12.461V8.16415C20.625 7.45517 20.0449 6.87509 19.3359 6.87509H10.3125C4.61914 6.87509 0 11.4942 0 17.1876V37.8126C0 43.5059 4.61914 48.1251 10.3125 48.1251H19.3359C20.0449 48.1251 20.625 47.545 20.625 46.836Z" fill="#A7A7A7"/>
</svg>
