<svg width="5" height="5" viewBox="0 0 55 55" fill="none" xmlns="http://www.w3.org/2000/svg">
<path fill-rule="evenodd" clip-rule="evenodd" d="M11 5.5C11.7293 5.5 12.4288 5.78973 12.9445 6.30546C13.4603 6.82118 13.75 7.52065 13.75 8.25V14.0278C16.0381 11.6937 18.8827 9.98059 22.0158 9.04965C25.1489 8.11871 28.4674 8.00063 31.6588 8.70651C34.8501 9.4124 37.8093 10.919 40.2575 13.0845C42.7057 15.25 44.5624 18.003 45.6527 21.0842C45.785 21.4273 45.8472 21.7935 45.8355 22.161C45.8238 22.5285 45.7385 22.8899 45.5847 23.2239C45.4309 23.5579 45.2117 23.8576 44.94 24.1054C44.6683 24.3532 44.3497 24.544 44.003 24.6665C43.6563 24.789 43.2885 24.8407 42.9215 24.8186C42.5545 24.7965 42.1956 24.701 41.8661 24.5378C41.5366 24.3745 41.2432 24.1469 41.0032 23.8683C40.7633 23.5897 40.5816 23.2658 40.469 22.9158C39.6389 20.5695 38.1877 18.4924 36.2702 16.9058C34.3527 15.3193 32.0407 14.2826 29.5805 13.9064C27.1204 13.5302 24.6042 13.8285 22.3002 14.7695C19.9962 15.7106 17.9906 17.2591 16.4973 19.25H24.75C25.4793 19.25 26.1788 19.5397 26.6945 20.0555C27.2103 20.5712 27.5 21.2707 27.5 22C27.5 22.7293 27.2103 23.4288 26.6945 23.9445C26.1788 24.4603 25.4793 24.75 24.75 24.75H11C10.2707 24.75 9.57118 24.4603 9.05546 23.9445C8.53973 23.4288 8.25 22.7293 8.25 22V8.25C8.25 7.52065 8.53973 6.82118 9.05546 6.30546C9.57118 5.78973 10.2707 5.5 11 5.5ZM11.022 30.4067C11.3625 30.2865 11.7235 30.2344 12.0841 30.2537C12.4448 30.2729 12.7981 30.3629 13.124 30.5187C13.4498 30.6745 13.7418 30.8929 13.9832 31.1615C14.2246 31.4301 14.4108 31.7437 14.531 32.0842C15.3611 34.4305 16.8123 36.5076 18.7298 38.0942C20.6473 39.6807 22.9593 40.7174 25.4195 41.0936C27.8796 41.4698 30.3958 41.1715 32.6998 40.2305C35.0038 39.2894 37.0094 37.7409 38.5028 35.75H30.25C29.5207 35.75 28.8212 35.4603 28.3055 34.9445C27.7897 34.4288 27.5 33.7293 27.5 33C27.5 32.2707 27.7897 31.5712 28.3055 31.0555C28.8212 30.5397 29.5207 30.25 30.25 30.25H44C44.7293 30.25 45.4288 30.5397 45.9445 31.0555C46.4603 31.5712 46.75 32.2707 46.75 33V46.75C46.75 47.4793 46.4603 48.1788 45.9445 48.6945C45.4288 49.2103 44.7293 49.5 44 49.5C43.2707 49.5 42.5712 49.2103 42.0555 48.6945C41.5397 48.1788 41.25 47.4793 41.25 46.75V40.9723C38.9619 43.3063 36.1173 45.0194 32.9842 45.9503C29.8511 46.8813 26.5326 46.9994 23.3412 46.2935C20.1499 45.5876 17.1907 44.081 14.7425 41.9155C12.2943 39.75 10.4376 36.997 9.34725 33.9158C9.22697 33.5752 9.17494 33.2143 9.19415 32.8536C9.21336 32.493 9.30342 32.1396 9.45919 31.8138C9.61496 31.4879 9.8334 31.196 10.102 30.9546C10.3706 30.7131 10.6814 30.527 11.022 30.4067Z" fill="#A7A7A7"/>
</svg>
