<svg width="55" height="55" viewBox="0 0 55 55" fill="none" xmlns="http://www.w3.org/2000/svg">
<g clip-path="url(#clip0_505_1006)">
<path d="M6.875 49.8438C6.875 51.2113 7.41825 52.5228 8.38523 53.4898C9.35222 54.4568 10.6637 55 12.0312 55H42.9688C44.3363 55 45.6478 54.4568 46.6148 53.4898C47.5818 52.5228 48.125 51.2113 48.125 49.8438V13.75H6.875V49.8438ZM36.0938 22.3438C36.0938 21.8879 36.2748 21.4508 36.5972 21.1284C36.9195 20.8061 37.3567 20.625 37.8125 20.625C38.2683 20.625 38.7055 20.8061 39.0278 21.1284C39.3502 21.4508 39.5312 21.8879 39.5312 22.3438V46.4063C39.5312 46.8621 39.3502 47.2993 39.0278 47.6216C38.7055 47.9439 38.2683 48.125 37.8125 48.125C37.3567 48.125 36.9195 47.9439 36.5972 47.6216C36.2748 47.2993 36.0938 46.8621 36.0938 46.4063V22.3438ZM25.7812 22.3438C25.7812 21.8879 25.9623 21.4508 26.2847 21.1284C26.607 20.8061 27.0442 20.625 27.5 20.625C27.9558 20.625 28.393 20.8061 28.7153 21.1284C29.0377 21.4508 29.2188 21.8879 29.2188 22.3438V46.4063C29.2188 46.8621 29.0377 47.2993 28.7153 47.6216C28.393 47.9439 27.9558 48.125 27.5 48.125C27.0442 48.125 26.607 47.9439 26.2847 47.6216C25.9623 47.2993 25.7812 46.8621 25.7812 46.4063V22.3438ZM15.4688 22.3438C15.4688 21.8879 15.6498 21.4508 15.9722 21.1284C16.2945 20.8061 16.7317 20.625 17.1875 20.625C17.6433 20.625 18.0805 20.8061 18.4028 21.1284C18.7252 21.4508 18.9062 21.8879 18.9062 22.3438V46.4063C18.9062 46.8621 18.7252 47.2993 18.4028 47.6216C18.0805 47.9439 17.6433 48.125 17.1875 48.125C16.7317 48.125 16.2945 47.9439 15.9722 47.6216C15.6498 47.2993 15.4688 46.8621 15.4688 46.4063V22.3438ZM49.8438 3.43752H36.9531L35.9434 1.42873C35.7295 0.999272 35.4 0.638022 34.9919 0.385619C34.5839 0.133216 34.1136 -0.00032527 33.6338 1.8834e-05H21.3555C20.8768 -0.00182136 20.4072 0.131222 20.0007 0.383906C19.5941 0.636589 19.2669 0.998693 19.0566 1.42873L18.0469 3.43752H5.15625C4.70041 3.43752 4.26324 3.6186 3.94091 3.94093C3.61858 4.26326 3.4375 4.70043 3.4375 5.15627L3.4375 8.59377C3.4375 9.04961 3.61858 9.48678 3.94091 9.80911C4.26324 10.1314 4.70041 10.3125 5.15625 10.3125H49.8438C50.2996 10.3125 50.7368 10.1314 51.0591 9.80911C51.3814 9.48678 51.5625 9.04961 51.5625 8.59377V5.15627C51.5625 4.70043 51.3814 4.26326 51.0591 3.94093C50.7368 3.6186 50.2996 3.43752 49.8438 3.43752Z" fill="black"/>
</g>
<defs>
<clipPath id="clip0_505_1006">
<rect width="55" height="55" rx="27.5" fill="white"/>
</clipPath>
</defs>
</svg>
